<mxfile host="app.diagrams.net" modified="2022-03-13T17:06:39.700Z" agent="5.0 (X11)" etag="FqC1Fitnde0i5DKBBf3b" version="17.1.2" type="github">
  <diagram id="jlTa7H2PEibi2Rj1zF9B" name="Page-1">
    <mxGraphModel dx="1422" dy="721" grid="1" gridSize="10" guides="1" tooltips="1" connect="1" arrows="1" fold="1" page="1" pageScale="1" pageWidth="850" pageHeight="1100" math="0" shadow="0">
      <root>
        <mxCell id="0" />
        <mxCell id="1" parent="0" />
        <mxCell id="zPQMYI9RRcTIxuc1uKAt-28" value="&lt;p style=&quot;margin: 0px ; margin-top: 4px ; text-align: center&quot;&gt;&lt;b&gt;Taxikar&lt;/b&gt;&lt;/p&gt;&lt;hr size=&quot;1&quot;&gt;&lt;p style=&quot;margin: 0px ; margin-left: 4px&quot;&gt;profil&lt;/p&gt;&lt;hr size=&quot;1&quot;&gt;&lt;p style=&quot;margin: 0px ; margin-left: 4px&quot;&gt;+ method(): Type&lt;/p&gt;" style="verticalAlign=top;align=left;overflow=fill;fontSize=12;fontFamily=Helvetica;html=1;" vertex="1" parent="1">
          <mxGeometry x="40" y="130" width="160" height="90" as="geometry" />
        </mxCell>
        <mxCell id="zPQMYI9RRcTIxuc1uKAt-29" value="&lt;p style=&quot;margin: 0px ; margin-top: 4px ; text-align: center&quot;&gt;&lt;b&gt;Zakaznik&lt;/b&gt;&lt;/p&gt;&lt;hr size=&quot;1&quot;&gt;&lt;p style=&quot;margin: 0px ; margin-left: 4px&quot;&gt;kontakt&lt;br&gt;&lt;/p&gt;&lt;hr size=&quot;1&quot;&gt;&lt;p style=&quot;margin: 0px ; margin-left: 4px&quot;&gt;+ method(): Type&lt;/p&gt;" style="verticalAlign=top;align=left;overflow=fill;fontSize=12;fontFamily=Helvetica;html=1;" vertex="1" parent="1">
          <mxGeometry x="240" y="130" width="160" height="90" as="geometry" />
        </mxCell>
        <mxCell id="zPQMYI9RRcTIxuc1uKAt-31" value="&lt;p style=&quot;margin: 0px ; margin-top: 4px ; text-align: center&quot;&gt;&lt;b&gt;Hodnotenie&lt;/b&gt;&lt;/p&gt;&lt;hr size=&quot;1&quot;&gt;&lt;p style=&quot;margin: 0px ; margin-left: 4px&quot;&gt;+ field: Type&lt;/p&gt;&lt;hr size=&quot;1&quot;&gt;&lt;p style=&quot;margin: 0px ; margin-left: 4px&quot;&gt;+ method(): Type&lt;/p&gt;" style="verticalAlign=top;align=left;overflow=fill;fontSize=12;fontFamily=Helvetica;html=1;" vertex="1" parent="1">
          <mxGeometry x="140" y="330" width="160" height="90" as="geometry" />
        </mxCell>
        <mxCell id="zPQMYI9RRcTIxuc1uKAt-32" value="" style="endArrow=none;html=1;edgeStyle=orthogonalEdgeStyle;rounded=0;entryX=0.25;entryY=0;entryDx=0;entryDy=0;" edge="1" parent="1" source="zPQMYI9RRcTIxuc1uKAt-28" target="zPQMYI9RRcTIxuc1uKAt-31">
          <mxGeometry relative="1" as="geometry">
            <mxPoint x="340" y="270" as="sourcePoint" />
            <mxPoint x="500" y="270" as="targetPoint" />
          </mxGeometry>
        </mxCell>
        <mxCell id="zPQMYI9RRcTIxuc1uKAt-33" value="parent" style="edgeLabel;resizable=0;html=1;align=left;verticalAlign=bottom;" connectable="0" vertex="1" parent="zPQMYI9RRcTIxuc1uKAt-32">
          <mxGeometry x="-1" relative="1" as="geometry">
            <mxPoint x="-40" y="30" as="offset" />
          </mxGeometry>
        </mxCell>
        <mxCell id="zPQMYI9RRcTIxuc1uKAt-34" value="child" style="edgeLabel;resizable=0;html=1;align=right;verticalAlign=bottom;" connectable="0" vertex="1" parent="zPQMYI9RRcTIxuc1uKAt-32">
          <mxGeometry x="1" relative="1" as="geometry" />
        </mxCell>
        <mxCell id="zPQMYI9RRcTIxuc1uKAt-38" value="" style="endArrow=none;html=1;edgeStyle=orthogonalEdgeStyle;rounded=0;exitX=0.5;exitY=1;exitDx=0;exitDy=0;entryX=0.75;entryY=0;entryDx=0;entryDy=0;" edge="1" parent="1" source="zPQMYI9RRcTIxuc1uKAt-29" target="zPQMYI9RRcTIxuc1uKAt-31">
          <mxGeometry relative="1" as="geometry">
            <mxPoint x="340" y="270" as="sourcePoint" />
            <mxPoint x="500" y="270" as="targetPoint" />
          </mxGeometry>
        </mxCell>
        <mxCell id="zPQMYI9RRcTIxuc1uKAt-39" value="parent" style="edgeLabel;resizable=0;html=1;align=left;verticalAlign=bottom;" connectable="0" vertex="1" parent="zPQMYI9RRcTIxuc1uKAt-38">
          <mxGeometry x="-1" relative="1" as="geometry">
            <mxPoint x="10" y="30" as="offset" />
          </mxGeometry>
        </mxCell>
        <mxCell id="zPQMYI9RRcTIxuc1uKAt-40" value="child" style="edgeLabel;resizable=0;html=1;align=right;verticalAlign=bottom;" connectable="0" vertex="1" parent="zPQMYI9RRcTIxuc1uKAt-38">
          <mxGeometry x="1" relative="1" as="geometry" />
        </mxCell>
        <mxCell id="zPQMYI9RRcTIxuc1uKAt-42" value="&lt;p style=&quot;margin: 0px ; margin-top: 4px ; text-align: center&quot;&gt;&lt;b&gt;Zoznam taxikarov&lt;br&gt;&lt;/b&gt;&lt;/p&gt;&lt;hr size=&quot;1&quot;&gt;&lt;p style=&quot;margin: 0px ; margin-left: 4px&quot;&gt;taxikari&lt;/p&gt;&lt;p style=&quot;margin: 0px ; margin-left: 4px&quot;&gt;filtre&lt;br&gt;&lt;/p&gt;&lt;hr size=&quot;1&quot;&gt;&lt;p style=&quot;margin: 0px ; margin-left: 4px&quot;&gt;+ method(): Type&lt;/p&gt;" style="verticalAlign=top;align=left;overflow=fill;fontSize=12;fontFamily=Helvetica;html=1;" vertex="1" parent="1">
          <mxGeometry x="450" y="140" width="160" height="90" as="geometry" />
        </mxCell>
        <mxCell id="zPQMYI9RRcTIxuc1uKAt-48" value="&lt;p style=&quot;margin: 0px ; margin-top: 4px ; text-align: center&quot;&gt;&lt;b&gt;Objednavka&lt;/b&gt;&lt;br&gt;&lt;/p&gt;&lt;hr size=&quot;1&quot;&gt;&lt;p style=&quot;margin: 0px ; margin-left: 4px&quot;&gt;+ field: Type&lt;/p&gt;&lt;hr size=&quot;1&quot;&gt;&lt;p style=&quot;margin: 0px ; margin-left: 4px&quot;&gt;+ method(): Type&lt;/p&gt;" style="verticalAlign=top;align=left;overflow=fill;fontSize=12;fontFamily=Helvetica;html=1;" vertex="1" parent="1">
          <mxGeometry x="470" y="310" width="160" height="90" as="geometry" />
        </mxCell>
      </root>
    </mxGraphModel>
  </diagram>
</mxfile>
